/* XPM */
static char * uck_xpm[] = {
"32 32 574 2",
"  	c None",
". 	c #CA9A6B",
"+ 	c #D09360",
"@ 	c #D1915C",
"# 	c #D19156",
"$ 	c #D69158",
"% 	c #D09560",
"& 	c #CA9C6B",
"* 	c #CE9B63",
"= 	c #E07B3C",
"- 	c #EA7231",
"; 	c #F06D27",
"> 	c #EF6A25",
", 	c #EA6E25",
"' 	c #EA7123",
") 	c #EE7024",
"! 	c #ED7228",
"~ 	c #ED732B",
"{ 	c #EA7730",
"] 	c #E57B36",
"^ 	c #D5915A",
"/ 	c #C9BD75",
"( 	c #EA8B42",
"_ 	c #EC7022",
": 	c #E87027",
"< 	c #EB6E29",
"[ 	c #F0822C",
"} 	c #F08F31",
"| 	c #EA812C",
"1 	c #E97224",
"2 	c #ED7125",
"3 	c #EC7229",
"4 	c #EC7228",
"5 	c #EB7127",
"6 	c #EB6F24",
"7 	c #E77733",
"8 	c #CC9766",
"9 	c #E4BE4F",
"0 	c #F5BB2F",
"a 	c #F4A630",
"b 	c #ED7227",
"c 	c #E97126",
"d 	c #ED982F",
"e 	c #F6B32A",
"f 	c #F7B229",
"g 	c #F2B32B",
"h 	c #EA932E",
"i 	c #EC6E25",
"j 	c #EB7228",
"k 	c #EA7128",
"l 	c #E97028",
"m 	c #EB6F27",
"n 	c #EA6F28",
"o 	c #E17D3F",
"p 	c #EABD48",
"q 	c #F5B929",
"r 	c #F3B92B",
"s 	c #F5B82D",
"t 	c #EE812B",
"u 	c #EA7D28",
"v 	c #EFB02C",
"w 	c #F5B12A",
"x 	c #F7B029",
"y 	c #F3B329",
"z 	c #F1B82B",
"A 	c #EB772B",
"B 	c #EC7128",
"C 	c #EB7128",
"D 	c #E97027",
"E 	c #E96F27",
"F 	c #EB6E27",
"G 	c #EB6F26",
"H 	c #EB6E25",
"I 	c #E17D3C",
"J 	c #EBBE4B",
"K 	c #F7BA2E",
"L 	c #F4B92D",
"M 	c #F2B92B",
"N 	c #F2B82C",
"O 	c #F3AD30",
"P 	c #F3AF2A",
"Q 	c #F0B62A",
"R 	c #F2B12B",
"S 	c #F6B029",
"T 	c #F3B229",
"U 	c #F2B827",
"V 	c #EB8733",
"W 	c #EA7127",
"X 	c #EA6E27",
"Y 	c #EA6F26",
"Z 	c #E96F26",
"` 	c #E86F24",
" .	c #E27936",
"..	c #E7BE56",
"+.	c #F7B92B",
"@.	c #F6B82D",
"#.	c #F5B92D",
"$.	c #F3B82C",
"%.	c #F0B72B",
"&.	c #F5B72B",
"*.	c #F1B629",
"=.	c #F1B22A",
"-.	c #F5B029",
";.	c #F3B228",
">.	c #F1B729",
",.	c #EA7C2E",
"'.	c #EB7027",
").	c #EA7027",
"!.	c #E97026",
"~.	c #E86E26",
"{.	c #E87025",
"].	c #E86F26",
"^.	c #E96F24",
"/.	c #DA864C",
"(.	c #CABC7B",
"_.	c #F5B931",
":.	c #F6B82E",
"<.	c #F5B92E",
"[.	c #F6B92E",
"}.	c #F5B82E",
"|.	c #F1B62B",
"1.	c #EEB52B",
"2.	c #F2B62B",
"3.	c #F3B82A",
"4.	c #EFB32C",
"5.	c #E98D2D",
"6.	c #E96E26",
"7.	c #E76F25",
"8.	c #E77026",
"9.	c #E87026",
"0.	c #E86F25",
"a.	c #E96E23",
"b.	c #D28C59",
"c.	c #EFBE4B",
"d.	c #F6B82C",
"e.	c #F4B82D",
"f.	c #F5B72D",
"g.	c #F3B72C",
"h.	c #EFB52C",
"i.	c #EDB42B",
"j.	c #ED9E31",
"k.	c #E66A26",
"l.	c #E96727",
"m.	c #E86C2A",
"n.	c #E86D23",
"o.	c #EA7026",
"p.	c #E96E25",
"q.	c #E86E25",
"r.	c #E76F26",
"s.	c #E66F26",
"t.	c #E37530",
"u.	c #D5C178",
"v.	c #F6B82A",
"w.	c #F4B82E",
"x.	c #F5B72E",
"y.	c #F5B72C",
"z.	c #F2B62C",
"A.	c #ECB22C",
"B.	c #EEB42D",
"C.	c #E9792B",
"D.	c #E96920",
"E.	c #EC661D",
"F.	c #EA6B1E",
"G.	c #EB6D20",
"H.	c #EA6D22",
"I.	c #E76E26",
"J.	c #E66E24",
"K.	c #CB9467",
"L.	c #EABB47",
"M.	c #F4B72E",
"N.	c #F3B72D",
"O.	c #F4B62D",
"P.	c #F4B72C",
"Q.	c #F0B52C",
"R.	c #E9AE2B",
"S.	c #E7A73E",
"T.	c #D29A75",
"U.	c #C0B8AC",
"V.	c #BAC6C4",
"W.	c #C0BFB6",
"X.	c #D0A17F",
"Y.	c #E27B3D",
"Z.	c #E66E25",
"`.	c #E56F25",
" +	c #E56F24",
".+	c #E56E24",
"++	c #DE7A39",
"@+	c #EFB939",
"#+	c #F3B62D",
"$+	c #F3B62C",
"%+	c #F3B62A",
"&+	c #E3B954",
"*+	c #BCBCAE",
"=+	c #B7B2A5",
"-+	c #C1BCB1",
";+	c #C9C4BB",
">+	c #C6C1B7",
",+	c #C5C1B6",
"'+	c #C9C5BD",
")+	c #D98B57",
"!+	c #E86C22",
"~+	c #E66F25",
"{+	c #E46F24",
"]+	c #E46E25",
"^+	c #E46D21",
"/+	c #BE9D7E",
"(+	c #C9BC7F",
"_+	c #F2B831",
":+	c #F2B72D",
"<+	c #F2B72C",
"[+	c #F2B62D",
"}+	c #EDB739",
"|+	c #BEBDAC",
"1+	c #BBB3A4",
"2+	c #D5D5D2",
"3+	c #DADBD9",
"4+	c #DBDAD8",
"5+	c #D5D6D2",
"6+	c #CFC8BD",
"7+	c #C6D4D4",
"8+	c #DF7D3F",
"9+	c #E76E25",
"0+	c #E46F25",
"a+	c #E36F24",
"b+	c #E36E24",
"c+	c #E36F23",
"d+	c #E36C20",
"e+	c #CE8E5F",
"f+	c #D0BC75",
"g+	c #F2B52C",
"h+	c #F3B528",
"i+	c #D9BC6D",
"j+	c #BAB5AB",
"k+	c #DCDBD8",
"l+	c #D4D1C6",
"m+	c #CBC7B9",
"n+	c #D6D4C8",
"o+	c #D9D9D5",
"p+	c #D4D3D0",
"q+	c #D8D6CF",
"r+	c #CFAC91",
"s+	c #E56F27",
"t+	c #E26E24",
"u+	c #E26D22",
"v+	c #D57F44",
"w+	c #D3BD72",
"x+	c #F1B72D",
"y+	c #F1B62C",
"z+	c #F0B62C",
"A+	c #F3B525",
"B+	c #C5BE9E",
"C+	c #C7C3BA",
"D+	c #DADAD8",
"E+	c #D5D2C7",
"F+	c #DFDDD2",
"G+	c #DCD8D1",
"H+	c #D2C3B4",
"I+	c #E2762F",
"J+	c #E66F24",
"K+	c #E36D24",
"L+	c #E36D23",
"M+	c #E36E23",
"N+	c #E26F23",
"O+	c #D87B3C",
"P+	c #D3BC72",
"Q+	c #F1B62D",
"R+	c #F1B52C",
"S+	c #F0B62B",
"T+	c #F2B525",
"U+	c #C0BFAF",
"V+	c #CECBC4",
"W+	c #D9DAD6",
"X+	c #CFCDBF",
"Y+	c #E0E0D1",
"Z+	c #D5D6D4",
"`+	c #DDDBD6",
" @	c #D3C7C2",
".@	c #C2583D",
"+@	c #C24D30",
"@@	c #C55332",
"#@	c #E57024",
"$@	c #E16C25",
"%@	c #C4522E",
"&@	c #BE4C2E",
"*@	c #BC5C41",
"=@	c #D3BD73",
"-@	c #F1B52B",
";@	c #EFB62C",
">@	c #EFB62B",
",@	c #EFB52B",
"'@	c #EFB42A",
")@	c #F2B425",
"!@	c #C8BF9B",
"~@	c #CFCDC6",
"{@	c #D7D8D5",
"]@	c #DBDACE",
"^@	c #E6E6DA",
"/@	c #D0D1D0",
"(@	c #E5E3DF",
"_@	c #C9B5B4",
":@	c #AD2F33",
"<@	c #AB2428",
"[@	c #BD422D",
"}@	c #E67023",
"|@	c #B73929",
"1@	c #A82427",
"2@	c #A92326",
"3@	c #A94041",
"4@	c #CEBC79",
"5@	c #F0B52B",
"6@	c #F0B42B",
"7@	c #F0B42A",
"8@	c #F0B428",
"9@	c #DBBA64",
"0@	c #D0CEC7",
"a@	c #D5D6D3",
"b@	c #D8D9D5",
"c@	c #E3E2D6",
"d@	c #E5E5D6",
"e@	c #E6E7DB",
"f@	c #D7D7D3",
"g@	c #D6D6D4",
"h@	c #E6E6E4",
"i@	c #BC908F",
"j@	c #AC262A",
"k@	c #AF2C2A",
"l@	c #DB6627",
"m@	c #E46D23",
"n@	c #D86427",
"o@	c #A92528",
"p@	c #AC4F4F",
"q@	c #C9BD84",
"r@	c #EEB630",
"s@	c #F0B42C",
"t@	c #EFB42B",
"u@	c #F0B52A",
"v@	c #F1B72A",
"w@	c #EBB434",
"x@	c #CBC4AD",
"y@	c #DCD8D3",
"z@	c #D7D6D5",
"A@	c #D1D2D1",
"B@	c #D3D4D2",
"C@	c #CED0CF",
"D@	c #D7D7D6",
"E@	c #E8E9E6",
"F@	c #D4D5D3",
"G@	c #AF4042",
"H@	c #AC2328",
"I@	c #C1452C",
"J@	c #E46C24",
"K@	c #E26C24",
"L@	c #E56F23",
"M@	c #BA412C",
"N@	c #A92024",
"O@	c #AF6C67",
"P@	c #EBB638",
"Q@	c #EAAE30",
"R@	c #C96932",
"S@	c #CA6931",
"T@	c #EAAD2D",
"U@	c #EFB328",
"V@	c #E6B540",
"W@	c #CCCCBE",
"X@	c #E0E1DD",
"Y@	c #E7E6E2",
"Z@	c #E7E6E4",
"`@	c #ECEDEA",
" #	c #E9EAE9",
".#	c #D4D1CF",
"+#	c #B3484A",
"@#	c #AC2428",
"##	c #BF442E",
"$#	c #E46E24",
"%#	c #E46D24",
"&#	c #E36C24",
"*#	c #E67022",
"=#	c #B83D2C",
"-#	c #AA2024",
";#	c #AA928C",
">#	c #E5B848",
",#	c #F0B429",
"'#	c #E5A331",
")#	c #AE2B2F",
"!#	c #AD232A",
"~#	c #AD2229",
"{#	c #B64131",
"]#	c #F1B829",
"^#	c #F0B327",
"/#	c #DD9632",
"(#	c #B87676",
"_#	c #C4A8A7",
":#	c #CDB7B6",
"<#	c #C4A7A8",
"[#	c #B78182",
"}#	c #B23133",
"|#	c #B21B1F",
"1#	c #AD2528",
"2#	c #AC2628",
"3#	c #AF2C2B",
"4#	c #D76129",
"5#	c #E36D25",
"6#	c #D15D2C",
"7#	c #A92328",
"8#	c #AF3E3F",
"9#	c #CFBE82",
"0#	c #F1B426",
"a#	c #BC4A30",
"b#	c #AE2529",
"c#	c #AE272A",
"d#	c #AD2629",
"e#	c #AB2028",
"f#	c #D7872F",
"g#	c #F2BB2A",
"h#	c #B4382C",
"i#	c #AD2427",
"j#	c #AD292C",
"k#	c #AC2C2E",
"l#	c #AD252B",
"m#	c #AA2026",
"n#	c #AA2225",
"o#	c #B21D1F",
"p#	c #B21E20",
"q#	c #AC2528",
"r#	c #AE292A",
"s#	c #B83C2E",
"t#	c #BF452E",
"u#	c #B73A2D",
"v#	c #AC2729",
"w#	c #AA2427",
"x#	c #AE7773",
"y#	c #E5B849",
"z#	c #F0B329",
"A#	c #EAAB2C",
"B#	c #B5372C",
"C#	c #AE2729",
"D#	c #AD2628",
"E#	c #AE2528",
"F#	c #B22F2A",
"G#	c #C45B2F",
"H#	c #AE2629",
"I#	c #A92325",
"J#	c #AD1F25",
"K#	c #AA1F26",
"L#	c #A92225",
"M#	c #AD2325",
"N#	c #B51E1A",
"O#	c #B12220",
"P#	c #AC2529",
"Q#	c #AB2529",
"R#	c #AB2328",
"S#	c #AC3435",
"T#	c #CCBC85",
"U#	c #EEB42E",
"V#	c #EEB22A",
"W#	c #B83D2B",
"X#	c #AC2629",
"Y#	c #AD2329",
"Z#	c #AD2328",
"`#	c #AC2329",
" $	c #AD2526",
".$	c #AC1F26",
"+$	c #AD1D26",
"@$	c #A82026",
"#$	c #AA2425",
"$$	c #B02321",
"%$	c #B72315",
"&$	c #B12520",
"*$	c #AC2429",
"=$	c #AC2427",
"-$	c #AA1D22",
";$	c #B0716F",
">$	c #DEB858",
",$	c #F0B325",
"'$	c #DF972D",
")$	c #B4372A",
"!$	c #B22F29",
"~$	c #B32F2A",
"{$	c #AC2425",
"]$	c #A92324",
"^$	c #AB1F25",
"/$	c #AD1D25",
"($	c #A91F26",
"_$	c #A82324",
":$	c #AC2424",
"<$	c #B4251A",
"[$	c #B82A11",
"}$	c #AF2622",
"|$	c #AB2227",
"1$	c #B05253",
"2$	c #DCB858",
"3$	c #EFB326",
"4$	c #EAAB29",
"5$	c #E8A228",
"6$	c #E9A428",
"7$	c #D1792D",
"8$	c #AA1F28",
"9$	c #AC2527",
"0$	c #AC2325",
"a$	c #AA1E27",
"b$	c #A72125",
"c$	c #AA2323",
"d$	c #AD2424",
"e$	c #B52C14",
"f$	c #B02C16",
"g$	c #AC2525",
"h$	c #AA2226",
"i$	c #AD3B3D",
"j$	c #978C8D",
"k$	c #E1B44B",
"l$	c #EFB026",
"m$	c #EFB027",
"n$	c #EDAD28",
"o$	c #B9422B",
"p$	c #AD2529",
"q$	c #AC2324",
"r$	c #A72424",
"s$	c #A91F25",
"t$	c #AE1D24",
"u$	c #AB1D26",
"v$	c #A62026",
"w$	c #A82323",
"x$	c #AB2225",
"y$	c #AD2721",
"z$	c #AB2B19",
"A$	c #A9281D",
"B$	c #B14142",
"C$	c #A99D9A",
"D$	c #D6B76D",
"E$	c #D98A2C",
"F$	c #AB2323",
"G$	c #A62424",
"H$	c #AD1D24",
"I$	c #AC1C25",
"J$	c #A71E27",
"K$	c #A52224",
"L$	c #AA2222",
"M$	c #AB2325",
"N$	c #A8211A",
"O$	c #B8645E",
"P$	c #A2999A",
"Q$	c #CEBD84",
"R$	c #B54D40",
"S$	c #AB262A",
"T$	c #AC2326",
"U$	c #A62423",
"V$	c #A81F25",
"W$	c #AD1C24",
"X$	c #A81D26",
"Y$	c #A41F25",
"Z$	c #A72322",
"`$	c #AF3536",
" %	c #BC8483",
".%	c #B58C84",
"+%	c #B25755",
"@%	c #AB1F23",
"#%	c #AC2023",
"$%	c #AB2020",
"%%	c #A62221",
"&%	c #A71D24",
"*%	c #AC1920",
"=%	c #AC171F",
"-%	c #AA1A24",
";%	c #AB474D",
">%	c #AD807B",
",%	c #B5AFA5",
"'%	c #B58783",
")%	c #B26260",
"!%	c #AD5351",
"~%	c #A74D4A",
"{%	c #AA4E52",
"]%	c #B15D5F",
"^%	c #B57B7B",
"/%	c #AEA5A3",
"                        . + @ # $ % &                           ",
"                  * = - ; > , ' ) ! ~ { ] ^                     ",
"              / ( _ : < [ } | 1 2 ! 3 4 5 6 7 8                 ",
"            9 0 a b c d e f g h i 4 3 j k l m n o               ",
"          p q r s t u v w x y z A B C 5 D E F G H I             ",
"        J K L M N O P Q R S T U V B 5 W E X G Y Z `  .          ",
"      ..+.@.#.$.%.N &.*.=.-.;.>.,.'.).!.Z X Z ~.{.].^./.        ",
"    (._.:.<.[.}.|.1.2.3.4.P R 5.Y C !.Z X Z 6.7.8.9.0.a.b.      ",
"    c.d.}.s e.f.g.h.i.j.k.l.m.n.o.).E ~.p.q.r.].].].8.s.t.      ",
"  u.v.s w.x.f.y.e.z.A.B.C.D.E.F.G.H.6.6.~.].].].I.r.s.s.J.K.    ",
"  L.e.M.e.$.N.N.O.P.Q.R.S.T.U.V.W.X.Y.q.r.r.r.I.s.Z.`. +.+++    ",
"  @+M.e.g.N.g.#+g.$+%+&+*+=+-+;+>+,+'+)+!+r.s.~+Z.`. +{+]+^+/+  ",
"(+_+:+<+[+<+<+<+2.|.}+|+1+2+3+4+3+5+6+7+8+9+`.`.{+0+a+b+c+d+e+  ",
"f+:+z.[+<+:+z.2.g+h+i+j+2+k+l+m+n+o+p+q+r+s+`..+0+0+a+c+t+u+v+  ",
"w+2.x+y+z+Q.z+z+z+A+B+C+D+E+      F+  G+H+I+J+ +K+K+L+M+N+M+O+  ",
"P+|.z+Q+R+|.R+|.S+T+U+V+W+X+      Y+Z+`+ @.@+@@@#@L+$@%@&@&@*@  ",
"=@-@Q.;@;@>@,@,@'@)@!@~@{@]@      ^@/@(@_@:@<@[@}@t+t+|@1@2@3@  ",
"4@;@;@5@5@Q.6@7@5@8@9@0@a@b@c@d@e@f@g@h@i@j@k@l@m@K+L+n@o@2@p@  ",
"q@r@6@s@5@t@u@v@%.u@w@x@y@z@A@B@C@D@E@F@G@H@I@.+J@K+K@L@M@N@O@  ",
"  P@h.5@'@u@Q@R@S@T@U@V@W@X@Y@Z@`@ #.#+#@#@###$#K+%#&#*#=#-#;#  ",
"  >#,#'@u@'#)#!#~#{#]#^#/#(#_#:#<#[#}#|#1#2#3#4#5#$#K+6#7#8#    ",
"  9#0#5@4.a#b#c#d#e#f#g#h#i#j#k#l#m#n#o#p#q#@#r#s#t#u#v#w#x#    ",
"    y#z#A#B#C#D#b#E#F#G#e#H#i#I#J#K#L#M#N#O#P#Q#<@R#<@q#S#      ",
"    T#U#V#W#1#X#b#Y#Z#`#1#b# $I#.$+$@$#$$$%$&$*$q#P#=$-$;$      ",
"      >$,$'$)$!$~$b#@#1#1#b#{$]$^$/$($_$:$<$[$}$<@R#|$1$        ",
"        2$3$4$5$6$7$8$9$1#1#0$_$^$/$a$b$c$d$e$f$g$h$i$j$        ",
"          k$l$m$n$o$<@=$p$@#q$r$s$t$u$v$w$x$y$z$A$B$C$          ",
"            D$l$E$<@9$9$p$i#F$G$s$H$I$J$K$L$M$N$O$P$            ",
"              Q$R$S$T$i#P#i#F$U$V$H$W$X$Y$Z$`$ %                ",
"                  .%+%j@@%#%$%%%&%*%=%-%;%>%                    ",
"                      ,%'%)%!%~%{%]%^%/%                        ",
"                                                                "};
